<mxfile modified="2021-06-03T20:37:54.844Z" host="app.diagrams.net" agent="5.0 (Windows NT 10.0; Win64; x64) AppleWebKit/537.36 (KHTML, like Gecko) Chrome/89.0.4389.114 Safari/537.36" etag="8RgEHnLklnJ6Uxjs7onF" version="14.7.4" type="github">
  <diagram id="Ht1M8jgEwFfnCIfOTk4-" name="Page-1">
    <mxGraphModel dx="1422" dy="1532" grid="1" gridSize="10" guides="1" tooltips="1" connect="1" arrows="1" fold="1" page="1" pageScale="1" pageWidth="1169" pageHeight="827" math="0" shadow="0">
      <root>
        <mxCell id="0" />
        <mxCell id="1" parent="0" />
        <mxCell id="UEzPUAAOIrF-is8g5C7q-110" value="Front-end" style="outlineConnect=0;gradientColor=none;fontColor=#545B64;strokeColor=none;fillColor=#879196;dashed=0;verticalLabelPosition=bottom;verticalAlign=top;align=center;html=1;fontSize=12;fontStyle=0;aspect=fixed;shape=mxgraph.aws4.illustration_notification;pointerEvents=1;labelBackgroundColor=#ffffff;" parent="1" vertex="1">
          <mxGeometry x="803" y="-160" width="100" height="81" as="geometry" />
        </mxCell>
        <mxCell id="uf95FVqDlsZ_gY-MuKM1-23" style="edgeStyle=orthogonalEdgeStyle;rounded=0;orthogonalLoop=1;jettySize=auto;html=1;" parent="1" source="UEzPUAAOIrF-is8g5C7q-113" target="UEzPUAAOIrF-is8g5C7q-121" edge="1">
          <mxGeometry relative="1" as="geometry" />
        </mxCell>
        <mxCell id="uf95FVqDlsZ_gY-MuKM1-25" style="edgeStyle=orthogonalEdgeStyle;rounded=0;orthogonalLoop=1;jettySize=auto;html=1;" parent="1" source="UEzPUAAOIrF-is8g5C7q-113" target="uf95FVqDlsZ_gY-MuKM1-4" edge="1">
          <mxGeometry relative="1" as="geometry" />
        </mxCell>
        <mxCell id="uf95FVqDlsZ_gY-MuKM1-27" style="edgeStyle=orthogonalEdgeStyle;rounded=0;orthogonalLoop=1;jettySize=auto;html=1;" parent="1" source="UEzPUAAOIrF-is8g5C7q-113" target="uf95FVqDlsZ_gY-MuKM1-3" edge="1">
          <mxGeometry relative="1" as="geometry">
            <Array as="points">
              <mxPoint x="700" y="220" />
              <mxPoint x="810" y="220" />
              <mxPoint x="810" y="150" />
            </Array>
          </mxGeometry>
        </mxCell>
        <mxCell id="uf95FVqDlsZ_gY-MuKM1-28" style="edgeStyle=orthogonalEdgeStyle;rounded=0;orthogonalLoop=1;jettySize=auto;html=1;" parent="1" source="UEzPUAAOIrF-is8g5C7q-113" target="uf95FVqDlsZ_gY-MuKM1-5" edge="1">
          <mxGeometry relative="1" as="geometry">
            <Array as="points">
              <mxPoint x="710" y="390" />
              <mxPoint x="810" y="390" />
              <mxPoint x="810" y="421" />
            </Array>
          </mxGeometry>
        </mxCell>
        <mxCell id="KiToCb5jC9uLLIDRjgtx-5" style="edgeStyle=orthogonalEdgeStyle;rounded=0;orthogonalLoop=1;jettySize=auto;html=1;verticalAlign=top;" edge="1" parent="1" source="UEzPUAAOIrF-is8g5C7q-113" target="UEzPUAAOIrF-is8g5C7q-116">
          <mxGeometry relative="1" as="geometry">
            <Array as="points">
              <mxPoint x="650" y="370" />
              <mxPoint x="530" y="370" />
              <mxPoint x="530" y="350" />
            </Array>
          </mxGeometry>
        </mxCell>
        <mxCell id="KiToCb5jC9uLLIDRjgtx-6" value="Clear invoked images" style="edgeLabel;html=1;align=center;verticalAlign=top;resizable=0;points=[];" vertex="1" connectable="0" parent="KiToCb5jC9uLLIDRjgtx-5">
          <mxGeometry x="0.3933" y="-4" relative="1" as="geometry">
            <mxPoint x="38" y="3" as="offset" />
          </mxGeometry>
        </mxCell>
        <mxCell id="UEzPUAAOIrF-is8g5C7q-113" value="Lambda" style="outlineConnect=0;fontColor=#232F3E;gradientColor=#F78E04;gradientDirection=north;fillColor=#D05C17;strokeColor=#ffffff;dashed=0;verticalLabelPosition=bottom;verticalAlign=top;align=center;html=1;fontSize=12;fontStyle=0;aspect=fixed;shape=mxgraph.aws4.resourceIcon;resIcon=mxgraph.aws4.lambda;labelBackgroundColor=#ffffff;spacingTop=3;" parent="1" vertex="1">
          <mxGeometry x="640" y="259.5" width="78" height="78" as="geometry" />
        </mxCell>
        <mxCell id="uf95FVqDlsZ_gY-MuKM1-16" style="edgeStyle=orthogonalEdgeStyle;rounded=0;orthogonalLoop=1;jettySize=auto;html=1;" parent="1" source="UEzPUAAOIrF-is8g5C7q-116" target="UEzPUAAOIrF-is8g5C7q-113" edge="1">
          <mxGeometry relative="1" as="geometry" />
        </mxCell>
        <mxCell id="UEzPUAAOIrF-is8g5C7q-116" value="Amazon S3" style="outlineConnect=0;fontColor=#232F3E;gradientColor=#60A337;gradientDirection=north;fillColor=#277116;strokeColor=#ffffff;dashed=0;verticalLabelPosition=bottom;verticalAlign=top;align=center;html=1;fontSize=12;fontStyle=0;aspect=fixed;shape=mxgraph.aws4.resourceIcon;resIcon=mxgraph.aws4.s3;labelBackgroundColor=#ffffff;" parent="1" vertex="1">
          <mxGeometry x="430.0000000000002" y="288.5" width="78" height="78" as="geometry" />
        </mxCell>
        <mxCell id="KiToCb5jC9uLLIDRjgtx-3" style="edgeStyle=orthogonalEdgeStyle;rounded=0;orthogonalLoop=1;jettySize=auto;html=1;" edge="1" parent="1" source="UEzPUAAOIrF-is8g5C7q-119" target="UEzPUAAOIrF-is8g5C7q-110">
          <mxGeometry relative="1" as="geometry">
            <mxPoint x="830" y="-150" as="targetPoint" />
            <Array as="points">
              <mxPoint x="1060" y="-110" />
            </Array>
          </mxGeometry>
        </mxCell>
        <mxCell id="UEzPUAAOIrF-is8g5C7q-119" value="Amazon&lt;br&gt;DynamoDB&lt;br&gt;" style="outlineConnect=0;fontColor=#232F3E;gradientColor=#4D72F3;gradientDirection=north;fillColor=#3334B9;strokeColor=#ffffff;dashed=0;verticalLabelPosition=bottom;verticalAlign=top;align=center;html=1;fontSize=12;fontStyle=0;aspect=fixed;shape=mxgraph.aws4.resourceIcon;resIcon=mxgraph.aws4.dynamodb;labelBackgroundColor=#ffffff;spacingTop=5;" parent="1" vertex="1">
          <mxGeometry x="1031.5000000000002" y="247" width="78" height="78" as="geometry" />
        </mxCell>
        <mxCell id="uf95FVqDlsZ_gY-MuKM1-24" style="edgeStyle=orthogonalEdgeStyle;rounded=0;orthogonalLoop=1;jettySize=auto;html=1;" parent="1" source="UEzPUAAOIrF-is8g5C7q-121" target="UEzPUAAOIrF-is8g5C7q-123" edge="1">
          <mxGeometry relative="1" as="geometry" />
        </mxCell>
        <mxCell id="UEzPUAAOIrF-is8g5C7q-121" value="Amazon&lt;br&gt;CloudWatch&lt;br&gt;" style="outlineConnect=0;fontColor=#232F3E;gradientColor=#F34482;gradientDirection=north;fillColor=#BC1356;strokeColor=#ffffff;dashed=0;verticalLabelPosition=bottom;verticalAlign=top;align=center;html=1;fontSize=12;fontStyle=0;aspect=fixed;shape=mxgraph.aws4.resourceIcon;resIcon=mxgraph.aws4.cloudwatch;labelBackgroundColor=#ffffff;" parent="1" vertex="1">
          <mxGeometry x="640.0000000000002" y="440" width="78" height="78" as="geometry" />
        </mxCell>
        <mxCell id="uf95FVqDlsZ_gY-MuKM1-14" style="edgeStyle=orthogonalEdgeStyle;rounded=0;orthogonalLoop=1;jettySize=auto;html=1;" parent="1" source="UEzPUAAOIrF-is8g5C7q-122" target="uf95FVqDlsZ_gY-MuKM1-1" edge="1">
          <mxGeometry relative="1" as="geometry">
            <mxPoint x="270" y="289.5" as="targetPoint" />
          </mxGeometry>
        </mxCell>
        <mxCell id="uf95FVqDlsZ_gY-MuKM1-19" style="edgeStyle=orthogonalEdgeStyle;rounded=0;orthogonalLoop=1;jettySize=auto;html=1;" parent="1" source="UEzPUAAOIrF-is8g5C7q-122" target="UEzPUAAOIrF-is8g5C7q-113" edge="1">
          <mxGeometry relative="1" as="geometry" />
        </mxCell>
        <mxCell id="UEzPUAAOIrF-is8g5C7q-122" value="IAM Roles" style="outlineConnect=0;fontColor=#232F3E;gradientColor=none;fillColor=#C7131F;strokeColor=none;dashed=0;verticalLabelPosition=bottom;verticalAlign=top;align=center;html=1;fontSize=12;fontStyle=0;aspect=fixed;pointerEvents=1;shape=mxgraph.aws4.role;labelBackgroundColor=#ffffff;" parent="1" vertex="1">
          <mxGeometry x="470.0000000000002" y="140" width="78" height="44" as="geometry" />
        </mxCell>
        <mxCell id="UEzPUAAOIrF-is8g5C7q-123" value="Amazon&lt;br&gt;CloudWatch Logs&lt;br&gt;" style="outlineConnect=0;fontColor=#232F3E;gradientColor=none;gradientDirection=north;fillColor=#F34482;strokeColor=none;dashed=0;verticalLabelPosition=bottom;verticalAlign=top;align=center;html=1;fontSize=12;fontStyle=0;aspect=fixed;shape=mxgraph.aws4.cloudwatch;labelBackgroundColor=#ffffff;" parent="1" vertex="1">
          <mxGeometry x="430.0000000000002" y="500" width="78" height="78" as="geometry" />
        </mxCell>
        <mxCell id="uf95FVqDlsZ_gY-MuKM1-15" style="edgeStyle=orthogonalEdgeStyle;rounded=0;orthogonalLoop=1;jettySize=auto;html=1;" parent="1" source="uf95FVqDlsZ_gY-MuKM1-1" target="UEzPUAAOIrF-is8g5C7q-116" edge="1">
          <mxGeometry relative="1" as="geometry">
            <mxPoint x="310" y="329.5" as="sourcePoint" />
          </mxGeometry>
        </mxCell>
        <mxCell id="uf95FVqDlsZ_gY-MuKM1-1" value="Raspberry Pi" style="shape=image;html=1;verticalAlign=top;verticalLabelPosition=bottom;labelBackgroundColor=#ffffff;imageAspect=0;aspect=fixed;image=https://cdn4.iconfinder.com/data/icons/logos-and-brands/512/272_Raspberry_Pi_logo-128.png" parent="1" vertex="1">
          <mxGeometry x="230" y="288.5" width="80" height="80" as="geometry" />
        </mxCell>
        <mxCell id="uf95FVqDlsZ_gY-MuKM1-29" style="edgeStyle=orthogonalEdgeStyle;rounded=0;orthogonalLoop=1;jettySize=auto;html=1;startArrow=none;startFill=0;" parent="1" source="uf95FVqDlsZ_gY-MuKM1-3" target="UEzPUAAOIrF-is8g5C7q-119" edge="1">
          <mxGeometry relative="1" as="geometry">
            <Array as="points">
              <mxPoint x="990" y="150" />
              <mxPoint x="990" y="270" />
            </Array>
          </mxGeometry>
        </mxCell>
        <mxCell id="uf95FVqDlsZ_gY-MuKM1-3" value="Rekognition" style="outlineConnect=0;fontColor=#232F3E;gradientColor=none;fillColor=#116D5B;strokeColor=none;dashed=0;verticalLabelPosition=bottom;verticalAlign=top;align=center;html=1;fontSize=12;fontStyle=0;aspect=fixed;pointerEvents=1;shape=mxgraph.aws4.rekognition_image;" parent="1" vertex="1">
          <mxGeometry x="828.5" y="111" width="77" height="78" as="geometry" />
        </mxCell>
        <mxCell id="uf95FVqDlsZ_gY-MuKM1-30" style="edgeStyle=orthogonalEdgeStyle;rounded=0;orthogonalLoop=1;jettySize=auto;html=1;" parent="1" source="uf95FVqDlsZ_gY-MuKM1-4" target="UEzPUAAOIrF-is8g5C7q-119" edge="1">
          <mxGeometry relative="1" as="geometry" />
        </mxCell>
        <mxCell id="uf95FVqDlsZ_gY-MuKM1-4" value="Thumbnail&lt;br&gt;" style="shape=image;html=1;verticalAlign=top;verticalLabelPosition=bottom;labelBackgroundColor=#ffffff;imageAspect=0;aspect=fixed;image=https://cdn2.iconfinder.com/data/icons/crystalproject/32x32/actions/thumbnail.png" parent="1" vertex="1">
          <mxGeometry x="831" y="250" width="72" height="72" as="geometry" />
        </mxCell>
        <mxCell id="uf95FVqDlsZ_gY-MuKM1-31" style="edgeStyle=orthogonalEdgeStyle;rounded=0;orthogonalLoop=1;jettySize=auto;html=1;" parent="1" source="uf95FVqDlsZ_gY-MuKM1-5" target="UEzPUAAOIrF-is8g5C7q-119" edge="1">
          <mxGeometry relative="1" as="geometry">
            <Array as="points">
              <mxPoint x="990" y="421" />
              <mxPoint x="990" y="300" />
            </Array>
          </mxGeometry>
        </mxCell>
        <mxCell id="uf95FVqDlsZ_gY-MuKM1-5" value="Metadata" style="pointerEvents=1;shadow=0;dashed=0;html=1;strokeColor=none;fillColor=#005F4B;labelPosition=center;verticalLabelPosition=bottom;verticalAlign=top;align=center;outlineConnect=0;shape=mxgraph.veeam2.metadata_file;" parent="1" vertex="1">
          <mxGeometry x="853" y="401" width="28.000000000000004" height="39" as="geometry" />
        </mxCell>
        <mxCell id="uf95FVqDlsZ_gY-MuKM1-17" style="edgeStyle=orthogonalEdgeStyle;rounded=0;orthogonalLoop=1;jettySize=auto;html=1;" parent="1" source="uf95FVqDlsZ_gY-MuKM1-11" target="UEzPUAAOIrF-is8g5C7q-122" edge="1">
          <mxGeometry relative="1" as="geometry" />
        </mxCell>
        <mxCell id="uf95FVqDlsZ_gY-MuKM1-11" value="IAM" style="outlineConnect=0;dashed=0;verticalLabelPosition=bottom;verticalAlign=top;align=center;html=1;shape=mxgraph.aws3.iam;fillColor=#759C3E;gradientColor=none;" parent="1" vertex="1">
          <mxGeometry x="640" y="30" width="42" height="81" as="geometry" />
        </mxCell>
        <mxCell id="uf95FVqDlsZ_gY-MuKM1-22" style="edgeStyle=orthogonalEdgeStyle;rounded=0;orthogonalLoop=1;jettySize=auto;html=1;" parent="1" source="uf95FVqDlsZ_gY-MuKM1-20" target="uf95FVqDlsZ_gY-MuKM1-1" edge="1">
          <mxGeometry relative="1" as="geometry" />
        </mxCell>
        <mxCell id="uf95FVqDlsZ_gY-MuKM1-20" value="Image" style="shape=image;html=1;verticalAlign=top;verticalLabelPosition=bottom;labelBackgroundColor=#ffffff;imageAspect=0;aspect=fixed;image=https://cdn2.iconfinder.com/data/icons/crystalproject/32x32/actions/thumbnail.png" parent="1" vertex="1">
          <mxGeometry x="40" y="230" width="72" height="72" as="geometry" />
        </mxCell>
        <mxCell id="KiToCb5jC9uLLIDRjgtx-1" value="Future scope" style="rounded=1;whiteSpace=wrap;html=1;fillColor=none;verticalAlign=top;" vertex="1" parent="1">
          <mxGeometry x="491.5" y="-239.5" width="540" height="240" as="geometry" />
        </mxCell>
        <mxCell id="KiToCb5jC9uLLIDRjgtx-4" value="Alexa enabled&#xa;device" style="outlineConnect=0;fontColor=#232F3E;gradientColor=none;strokeColor=#232F3E;fillColor=#ffffff;dashed=0;verticalLabelPosition=bottom;verticalAlign=top;align=center;html=1;fontSize=12;fontStyle=0;aspect=fixed;shape=mxgraph.aws4.resourceIcon;resIcon=mxgraph.aws4.alexa_enabled_device;" vertex="1" parent="1">
          <mxGeometry x="658" y="-160" width="60" height="60" as="geometry" />
        </mxCell>
      </root>
    </mxGraphModel>
  </diagram>
</mxfile>
